<?xml version="1.0" standalone="no"?><!DOCTYPE svg PUBLIC "-//W3C//DTD SVG 1.1//EN" "http://www.w3.org/Graphics/SVG/1.1/DTD/svg11.dtd"><svg
        class="icon" viewBox="0 0 1024 1024" version="1.1" xmlns="http://www.w3.org/2000/svg"
        width="200" height="200"><defs><style type="text/css"/></defs><path d="M830.2 866.7H698.4c-28 0-50.8-22.8-50.8-50.8v-402c0-28 22.8-50.8 50.8-50.8h131.8c28 0 50.8 22.8 50.8 50.8v402c0 28-22.8 50.8-50.8 50.8z m-110.5-72H809V435.1h-89.3v359.6zM323.6 866.7H191.8c-28 0-50.8-22.8-50.8-50.8V521.8c0-28 22.8-50.8 50.8-50.8h131.8c28 0 50.8 22.8 50.8 50.8V816c-0.1 27.9-22.8 50.7-50.8 50.7z m-110.6-72h89.3V543H213v251.7zM576.9 866.7H445.1c-28 0-50.8-22.8-50.8-50.8V198.1c0-28 22.8-50.8 50.8-50.8h131.8c28 0 50.8 22.8 50.8 50.8v617.8c0 28-22.8 50.8-50.8 50.8z m-110.6-72h89.3V219.4h-89.3v575.3z"/></svg>